<svg xmlns="http://www.w3.org/2000/svg" viewBox="0 0 512 512">
  <rect width="512" height="512" rx="96" fill="#131313"/>
  <g transform="translate(96.35, 97) scale(12)" fill="white">
    <path d="M25.1084 9.5C25.1084 6.44966 24.4911 4.50934 23.2891 3.3125C22.0862 2.11505 20.1354 1.5 17.0703 1.5H9.53809C6.47292 1.5 4.52219 2.11496 3.31934 3.3125C2.1173 4.50934 1.5 6.44966 1.5 9.5V17C1.5 20.0503 2.1173 21.9907 3.31934 23.1875C4.52219 24.385 6.47292 25 9.53809 25H17.0703C20.1354 25 22.0862 24.385 23.2891 23.1875C24.4911 21.9907 25.1084 20.0503 25.1084 17V9.5ZM26.6084 17C26.6084 20.1996 25.9703 22.6343 24.3477 24.25C22.7258 25.8649 20.2822 26.5 17.0703 26.5H9.53809C6.32622 26.5 3.88262 25.8649 2.26074 24.25C0.638201 22.6343 0 20.1995 0 17V9.5C0 6.30046 0.638201 3.86566 2.26074 2.25C3.88262 0.635136 6.32622 0 9.53809 0H17.0703C20.2822 0 22.7258 0.635136 24.3477 2.25C25.9703 3.86566 26.6084 6.30038 26.6084 9.5V17Z"/>
    <path d="M17.1679 8.3257C17.4608 8.03284 17.9356 8.03282 18.2284 8.3257C18.5213 8.61859 18.5213 9.09337 18.2284 9.38625L9.44036 18.1743C9.14747 18.4672 8.6727 18.4672 8.37981 18.1743C8.08693 17.8815 8.08695 17.4067 8.37981 17.1138L17.1679 8.3257Z"/>
    <path d="M10.8919 8.34376C11.1854 8.05158 11.6602 8.05242 11.9525 8.34571C12.2447 8.6392 12.244 9.11399 11.9505 9.40626L9.4398 11.9063C9.14633 12.1985 8.67152 12.1977 8.37925 11.9043C8.08705 11.6108 8.08785 11.136 8.38121 10.8438L10.8919 8.34376Z"/>
    <path d="M17.1688 14.5938C17.4623 14.3016 17.9371 14.3024 18.2293 14.5957C18.5216 14.8892 18.5208 15.364 18.2274 15.6563L15.7167 18.1563C15.4232 18.4485 14.9484 18.4477 14.6561 18.1543C14.3639 17.8608 14.3647 17.386 14.6581 17.0938L17.1688 14.5938Z"/>
  </g>
</svg>
